<svg width="295" height="43" viewBox="0 0 295 43" fill="none" xmlns="http://www.w3.org/2000/svg">
<path d="M27.1651 14.5767C26.9398 13.7415 26.6083 13.0057 26.1708 12.3693C25.7333 11.7197 25.1964 11.1695 24.56 10.7188C23.9237 10.268 23.1945 9.92992 22.3725 9.70454C21.5505 9.46591 20.649 9.34659 19.668 9.34659C17.6926 9.34659 15.9824 9.82386 14.5373 10.7784C13.1055 11.733 11.9985 13.125 11.2163 14.9545C10.4341 16.7708 10.043 18.9782 10.043 21.5767C10.043 24.1884 10.4208 26.4157 11.1765 28.2585C11.9322 30.1013 13.0259 31.5066 14.4577 32.4744C15.8896 33.4422 17.6263 33.9261 19.668 33.9261C21.471 33.9261 22.9956 33.6345 24.2418 33.0511C25.5013 32.4545 26.4558 31.6127 27.1055 30.5256C27.7551 29.4384 28.0799 28.1591 28.0799 26.6875L29.9094 26.9062H20.006V19.7273H37.5657V25.1165C37.5657 28.7623 36.7901 31.8845 35.239 34.483C33.7011 37.0814 31.5799 39.0767 28.8754 40.4688C26.1841 41.8608 23.0884 42.5568 19.5884 42.5568C15.704 42.5568 12.2901 41.715 9.34695 40.0312C6.40376 38.3475 4.1102 35.9479 2.46626 32.8324C0.822325 29.7036 0.000355095 25.9915 0.000355095 21.696C0.000355095 18.3551 0.497514 15.392 1.49183 12.8068C2.48615 10.2083 3.87157 8.00757 5.64808 6.20454C7.43786 4.40151 9.50604 3.03598 11.8526 2.10795C14.2125 1.17992 16.7513 0.715908 19.4691 0.715908C21.829 0.715908 24.0231 1.05398 26.0515 1.73011C28.0932 2.40625 29.8962 3.3608 31.4606 4.59375C33.0382 5.8267 34.3176 7.29167 35.2987 8.98864C36.2797 10.6856 36.8896 12.5483 37.1282 14.5767H27.1651ZM57.646 42.5767C54.4509 42.5767 51.6933 41.947 49.3732 40.6875C47.0664 39.4148 45.2899 37.6051 44.0437 35.2585C42.8107 32.8987 42.1942 30.0947 42.1942 26.8466C42.1942 23.6913 42.8174 20.9337 44.0636 18.5739C45.3098 16.2008 47.0664 14.358 49.3335 13.0455C51.6005 11.7197 54.2719 11.0568 57.3477 11.0568C59.5219 11.0568 61.5105 11.3949 63.3136 12.071C65.1166 12.7472 66.6744 13.7481 67.9869 15.0739C69.2994 16.3996 70.3202 18.0369 71.0494 19.9858C71.7785 21.9214 72.1431 24.142 72.1431 26.6477V29.0739H45.5948V23.4261H63.0948C63.0816 22.392 62.8363 21.4706 62.359 20.6619C61.8817 19.8532 61.2255 19.2235 60.3903 18.7727C59.5683 18.3087 58.6204 18.0767 57.5465 18.0767C56.4594 18.0767 55.485 18.322 54.6232 18.8125C53.7615 19.2898 53.0787 19.946 52.5749 20.7812C52.0711 21.6032 51.806 22.5379 51.7795 23.5852V29.3324C51.7795 30.5786 52.0247 31.6723 52.5153 32.6136C53.0058 33.5417 53.7018 34.2642 54.6033 34.7812C55.5049 35.2983 56.5787 35.5568 57.8249 35.5568C58.6867 35.5568 59.4689 35.4375 60.1715 35.1989C60.8742 34.9602 61.4774 34.6089 61.9812 34.1449C62.485 33.6809 62.8628 33.1108 63.1147 32.4347L72.0437 32.6932C71.6725 34.6951 70.8571 36.4384 69.5977 37.9233C68.3514 39.3949 66.7141 40.5417 64.6857 41.3636C62.6573 42.1723 60.3107 42.5767 57.646 42.5767ZM94.3512 11.4545V18.6136H75.0813V11.4545H94.3512ZM79.1183 4.13636H88.8427V32.3949C88.8427 32.9915 88.9355 33.4754 89.1211 33.8466C89.32 34.2045 89.605 34.4631 89.9762 34.6222C90.3474 34.768 90.7915 34.8409 91.3086 34.8409C91.6798 34.8409 92.0709 34.8078 92.4819 34.7415C92.9061 34.6619 93.2243 34.5956 93.4364 34.5426L94.908 41.5625C94.444 41.6951 93.7878 41.8608 92.9393 42.0597C92.104 42.2585 91.1031 42.3845 89.9364 42.4375C87.6561 42.5436 85.7006 42.2784 84.07 41.642C82.4525 40.9924 81.213 39.9848 80.3512 38.6193C79.5027 37.2538 79.0917 35.5369 79.1183 33.4688V4.13636ZM120.154 42H109.574L123.316 1.27273H136.421L150.162 42H139.583L130.017 11.5341H129.699L120.154 42ZM118.742 25.9716H140.855V33.4489H118.742V25.9716ZM166.578 1.27273H178.769L189.11 26.4886H189.587L199.928 1.27273H212.118V42H202.533V16.983H202.195L192.411 41.7415H186.286L176.502 16.8438H176.164V42H166.578V1.27273ZM232.537 42.5767C229.342 42.5767 226.584 41.947 224.264 40.6875C221.957 39.4148 220.181 37.6051 218.934 35.2585C217.701 32.8987 217.085 30.0947 217.085 26.8466C217.085 23.6913 217.708 20.9337 218.954 18.5739C220.2 16.2008 221.957 14.358 224.224 13.0455C226.491 11.7197 229.163 11.0568 232.238 11.0568C234.413 11.0568 236.401 11.3949 238.204 12.071C240.007 12.7472 241.565 13.7481 242.877 15.0739C244.19 16.3996 245.211 18.0369 245.94 19.9858C246.669 21.9214 247.034 24.142 247.034 26.6477V29.0739H220.485V23.4261H237.985C237.972 22.392 237.727 21.4706 237.25 20.6619C236.772 19.8532 236.116 19.2235 235.281 18.7727C234.459 18.3087 233.511 18.0767 232.437 18.0767C231.35 18.0767 230.376 18.322 229.514 18.8125C228.652 19.2898 227.969 19.946 227.466 20.7812C226.962 21.6032 226.697 22.5379 226.67 23.5852V29.3324C226.67 30.5786 226.915 31.6723 227.406 32.6136C227.896 33.5417 228.592 34.2642 229.494 34.7812C230.395 35.2983 231.469 35.5568 232.716 35.5568C233.577 35.5568 234.359 35.4375 235.062 35.1989C235.765 34.9602 236.368 34.6089 236.872 34.1449C237.376 33.6809 237.753 33.1108 238.005 32.4347L246.934 32.6932C246.563 34.6951 245.748 36.4384 244.488 37.9233C243.242 39.3949 241.605 40.5417 239.576 41.3636C237.548 42.1723 235.201 42.5767 232.537 42.5767ZM260.611 42.517C258.662 42.517 256.932 42.1922 255.421 41.5426C253.923 40.8797 252.736 39.8854 251.861 38.5597C250.999 37.2206 250.569 35.5436 250.569 33.5284C250.569 31.8314 250.867 30.3996 251.463 29.233C252.06 28.0663 252.882 27.1184 253.929 26.3892C254.977 25.66 256.183 25.1098 257.549 24.7386C258.914 24.3542 260.373 24.0956 261.924 23.9631C263.66 23.804 265.059 23.6383 266.12 23.4659C267.18 23.2803 267.949 23.0218 268.426 22.6903C268.917 22.3456 269.162 21.8617 269.162 21.2386V21.1392C269.162 20.1184 268.811 19.3295 268.108 18.7727C267.406 18.2159 266.458 17.9375 265.265 17.9375C263.979 17.9375 262.944 18.2159 262.162 18.7727C261.38 19.3295 260.883 20.0985 260.671 21.0795L251.702 20.7614C251.967 18.9053 252.65 17.2481 253.75 15.7898C254.864 14.3182 256.389 13.1648 258.324 12.3295C260.273 11.4811 262.613 11.0568 265.344 11.0568C267.293 11.0568 269.089 11.2888 270.733 11.7528C272.377 12.2036 273.809 12.8665 275.029 13.7415C276.248 14.6032 277.19 15.6638 277.853 16.9233C278.529 18.1828 278.867 19.6212 278.867 21.2386V42H269.719V37.7443H269.48C268.937 38.7784 268.241 39.6534 267.392 40.3693C266.557 41.0852 265.569 41.6222 264.429 41.9801C263.302 42.3381 262.03 42.517 260.611 42.517ZM263.614 36.1534C264.661 36.1534 265.603 35.9413 266.438 35.517C267.286 35.0928 267.962 34.5095 268.466 33.767C268.97 33.0114 269.222 32.1364 269.222 31.142V28.2386C268.944 28.3845 268.605 28.517 268.208 28.6364C267.823 28.7557 267.399 28.8684 266.935 28.9744C266.471 29.0805 265.994 29.1733 265.503 29.2528C265.013 29.3324 264.542 29.4053 264.091 29.4716C263.176 29.6174 262.394 29.8428 261.745 30.1477C261.108 30.4527 260.618 30.8504 260.273 31.3409C259.942 31.8182 259.776 32.3883 259.776 33.0511C259.776 34.0587 260.134 34.8277 260.85 35.358C261.579 35.8883 262.5 36.1534 263.614 36.1534ZM294.537 1.27273V42H284.813V1.27273H294.537Z" fill="white"/>
</svg>
