<svg width="261" height="43" viewBox="0 0 261 43" fill="none" xmlns="http://www.w3.org/2000/svg">
<path d="M27.8917 14.5767C27.6663 13.7415 27.3349 13.0057 26.8974 12.3693C26.4599 11.7197 25.9229 11.1695 25.2866 10.7188C24.6502 10.268 23.921 9.92992 23.0991 9.70454C22.2771 9.46591 21.3756 9.34659 20.3945 9.34659C18.4192 9.34659 16.7089 9.82386 15.2638 10.7784C13.832 11.733 12.725 13.125 11.9428 14.9545C11.1606 16.7708 10.7695 18.9782 10.7695 21.5767C10.7695 24.1884 11.1474 26.4157 11.9031 28.2585C12.6587 30.1013 13.7525 31.5066 15.1843 32.4744C16.6161 33.4422 18.3529 33.9261 20.3945 33.9261C22.1976 33.9261 23.7222 33.6345 24.9684 33.0511C26.2279 32.4545 27.1824 31.6127 27.832 30.5256C28.4817 29.4384 28.8065 28.1591 28.8065 26.6875L30.636 26.9062H20.7326V19.7273H38.2923V25.1165C38.2923 28.7623 37.5167 31.8845 35.9656 34.483C34.4277 37.0814 32.3065 39.0767 29.6019 40.4688C26.9106 41.8608 23.815 42.5568 20.315 42.5568C16.4305 42.5568 13.0167 41.715 10.0735 40.0312C7.13033 38.3475 4.83677 35.9479 3.19283 32.8324C1.54889 29.7036 0.726918 25.9915 0.726918 21.696C0.726918 18.3551 1.22408 15.392 2.2184 12.8068C3.21271 10.2083 4.59813 8.00757 6.37465 6.20454C8.16442 4.40151 10.2326 3.03598 12.5792 2.10795C14.939 1.17992 17.4779 0.715908 20.1957 0.715908C22.5555 0.715908 24.7496 1.05398 26.7781 1.73011C28.8197 2.40625 30.6228 3.3608 32.1871 4.59375C33.7648 5.8267 35.0442 7.29167 36.0252 8.98864C37.0063 10.6856 37.6161 12.5483 37.8548 14.5767H27.8917ZM58.3725 42.5767C55.1774 42.5767 52.4199 41.947 50.0998 40.6875C47.793 39.4148 46.0165 37.6051 44.7702 35.2585C43.5373 32.8987 42.9208 30.0947 42.9208 26.8466C42.9208 23.6913 43.5439 20.9337 44.7901 18.5739C46.0363 16.2008 47.793 14.358 50.06 13.0455C52.3271 11.7197 54.9985 11.0568 58.0742 11.0568C60.2485 11.0568 62.2371 11.3949 64.0401 12.071C65.8432 12.7472 67.4009 13.7481 68.7134 15.0739C70.0259 16.3996 71.0468 18.0369 71.7759 19.9858C72.5051 21.9214 72.8697 24.142 72.8697 26.6477V29.0739H46.3214V23.4261H63.8214C63.8081 22.392 63.5629 21.4706 63.0856 20.6619C62.6083 19.8532 61.9521 19.2235 61.1168 18.7727C60.2949 18.3087 59.3469 18.0767 58.2731 18.0767C57.186 18.0767 56.2115 18.322 55.3498 18.8125C54.488 19.2898 53.8053 19.946 53.3015 20.7812C52.7977 21.6032 52.5326 22.5379 52.506 23.5852V29.3324C52.506 30.5786 52.7513 31.6723 53.2418 32.6136C53.7324 33.5417 54.4284 34.2642 55.3299 34.7812C56.2314 35.2983 57.3053 35.5568 58.5515 35.5568C59.4132 35.5568 60.1954 35.4375 60.8981 35.1989C61.6007 34.9602 62.204 34.6089 62.7077 34.1449C63.2115 33.6809 63.5894 33.1108 63.8413 32.4347L72.7702 32.6932C72.399 34.6951 71.5837 36.4384 70.3242 37.9233C69.078 39.3949 67.4407 40.5417 65.4123 41.3636C63.3839 42.1723 61.0373 42.5767 58.3725 42.5767ZM95.0778 11.4545V18.6136H75.8079V11.4545H95.0778ZM79.8448 4.13636H89.5692V32.3949C89.5692 32.9915 89.6621 33.4754 89.8477 33.8466C90.0465 34.2045 90.3316 34.4631 90.7028 34.6222C91.074 34.768 91.5181 34.8409 92.0352 34.8409C92.4064 34.8409 92.7975 34.8078 93.2085 34.7415C93.6327 34.6619 93.9509 34.5956 94.163 34.5426L95.6346 41.5625C95.1706 41.6951 94.5143 41.8608 93.6658 42.0597C92.8306 42.2585 91.8297 42.3845 90.663 42.4375C88.3827 42.5436 86.4272 42.2784 84.7965 41.642C83.1791 40.9924 81.9395 39.9848 81.0778 38.6193C80.2293 37.2538 79.8183 35.5369 79.8448 33.4688V4.13636ZM108.65 42.517C106.701 42.517 104.971 42.1922 103.46 41.5426C101.962 40.8797 100.775 39.8854 99.9002 38.5597C99.0385 37.2206 98.6076 35.5436 98.6076 33.5284C98.6076 31.8314 98.9059 30.3996 99.5025 29.233C100.099 28.0663 100.921 27.1184 101.968 26.3892C103.016 25.66 104.222 25.1098 105.588 24.7386C106.953 24.3542 108.412 24.0956 109.963 23.9631C111.699 23.804 113.098 23.6383 114.159 23.4659C115.219 23.2803 115.988 23.0218 116.466 22.6903C116.956 22.3456 117.201 21.8617 117.201 21.2386V21.1392C117.201 20.1184 116.85 19.3295 116.147 18.7727C115.445 18.2159 114.497 17.9375 113.304 17.9375C112.018 17.9375 110.984 18.2159 110.201 18.7727C109.419 19.3295 108.922 20.0985 108.71 21.0795L99.7411 20.7614C100.006 18.9053 100.689 17.2481 101.789 15.7898C102.903 14.3182 104.428 13.1648 106.363 12.3295C108.312 11.4811 110.652 11.0568 113.383 11.0568C115.332 11.0568 117.128 11.2888 118.772 11.7528C120.416 12.2036 121.848 12.8665 123.068 13.7415C124.288 14.6032 125.229 15.6638 125.892 16.9233C126.568 18.1828 126.906 19.6212 126.906 21.2386V42H117.758V37.7443H117.52C116.976 38.7784 116.28 39.6534 115.431 40.3693C114.596 41.0852 113.609 41.6222 112.468 41.9801C111.342 42.3381 110.069 42.517 108.65 42.517ZM111.653 36.1534C112.7 36.1534 113.642 35.9413 114.477 35.517C115.325 35.0928 116.002 34.5095 116.505 33.767C117.009 33.0114 117.261 32.1364 117.261 31.142V28.2386C116.983 28.3845 116.645 28.517 116.247 28.6364C115.862 28.7557 115.438 28.8684 114.974 28.9744C114.51 29.0805 114.033 29.1733 113.542 29.2528C113.052 29.3324 112.581 29.4053 112.13 29.4716C111.216 29.6174 110.433 29.8428 109.784 30.1477C109.147 30.4527 108.657 30.8504 108.312 31.3409C107.981 31.8182 107.815 32.3883 107.815 33.0511C107.815 34.0587 108.173 34.8277 108.889 35.358C109.618 35.8883 110.539 36.1534 111.653 36.1534ZM132.852 1.27273H145.042L155.383 26.4886H155.86L166.201 1.27273H178.392V42H168.806V16.983H168.468L158.684 41.7415H152.559L142.775 16.8438H142.437V42H132.852V1.27273ZM198.81 42.5767C195.615 42.5767 192.857 41.947 190.537 40.6875C188.23 39.4148 186.454 37.6051 185.208 35.2585C183.975 32.8987 183.358 30.0947 183.358 26.8466C183.358 23.6913 183.981 20.9337 185.228 18.5739C186.474 16.2008 188.23 14.358 190.498 13.0455C192.765 11.7197 195.436 11.0568 198.512 11.0568C200.686 11.0568 202.675 11.3949 204.478 12.071C206.281 12.7472 207.838 13.7481 209.151 15.0739C210.463 16.3996 211.484 18.0369 212.213 19.9858C212.943 21.9214 213.307 24.142 213.307 26.6477V29.0739H186.759V23.4261H204.259C204.246 22.392 204 21.4706 203.523 20.6619C203.046 19.8532 202.39 19.2235 201.554 18.7727C200.732 18.3087 199.784 18.0767 198.711 18.0767C197.623 18.0767 196.649 18.322 195.787 18.8125C194.926 19.2898 194.243 19.946 193.739 20.7812C193.235 21.6032 192.97 22.5379 192.944 23.5852V29.3324C192.944 30.5786 193.189 31.6723 193.679 32.6136C194.17 33.5417 194.866 34.2642 195.767 34.7812C196.669 35.2983 197.743 35.5568 198.989 35.5568C199.851 35.5568 200.633 35.4375 201.336 35.1989C202.038 34.9602 202.641 34.6089 203.145 34.1449C203.649 33.6809 204.027 33.1108 204.279 32.4347L213.208 32.6932C212.837 34.6951 212.021 36.4384 210.762 37.9233C209.516 39.3949 207.878 40.5417 205.85 41.3636C203.821 42.1723 201.475 42.5767 198.81 42.5767ZM226.885 42.517C224.936 42.517 223.206 42.1922 221.694 41.5426C220.196 40.8797 219.01 39.8854 218.135 38.5597C217.273 37.2206 216.842 35.5436 216.842 33.5284C216.842 31.8314 217.14 30.3996 217.737 29.233C218.333 28.0663 219.155 27.1184 220.203 26.3892C221.25 25.66 222.457 25.1098 223.822 24.7386C225.188 24.3542 226.646 24.0956 228.197 23.9631C229.934 23.804 231.333 23.6383 232.393 23.4659C233.454 23.2803 234.223 23.0218 234.7 22.6903C235.19 22.3456 235.436 21.8617 235.436 21.2386V21.1392C235.436 20.1184 235.084 19.3295 234.382 18.7727C233.679 18.2159 232.731 17.9375 231.538 17.9375C230.252 17.9375 229.218 18.2159 228.436 18.7727C227.654 19.3295 227.156 20.0985 226.944 21.0795L217.975 20.7614C218.241 18.9053 218.923 17.2481 220.024 15.7898C221.137 14.3182 222.662 13.1648 224.598 12.3295C226.547 11.4811 228.886 11.0568 231.618 11.0568C233.566 11.0568 235.363 11.2888 237.007 11.7528C238.651 12.2036 240.083 12.8665 241.302 13.7415C242.522 14.6032 243.463 15.6638 244.126 16.9233C244.802 18.1828 245.14 19.6212 245.14 21.2386V42H235.993V37.7443H235.754C235.21 38.7784 234.514 39.6534 233.666 40.3693C232.831 41.0852 231.843 41.6222 230.703 41.9801C229.576 42.3381 228.303 42.517 226.885 42.517ZM229.887 36.1534C230.935 36.1534 231.876 35.9413 232.711 35.517C233.56 35.0928 234.236 34.5095 234.74 33.767C235.243 33.0114 235.495 32.1364 235.495 31.142V28.2386C235.217 28.3845 234.879 28.517 234.481 28.6364C234.097 28.7557 233.672 28.8684 233.208 28.9744C232.744 29.0805 232.267 29.1733 231.777 29.2528C231.286 29.3324 230.815 29.4053 230.365 29.4716C229.45 29.6174 228.668 29.8428 228.018 30.1477C227.382 30.4527 226.891 30.8504 226.547 31.3409C226.215 31.8182 226.049 32.3883 226.049 33.0511C226.049 34.0587 226.407 34.8277 227.123 35.358C227.852 35.8883 228.774 36.1534 229.887 36.1534ZM260.811 1.27273V42H251.086V1.27273H260.811Z" fill="white"/>
</svg>
