<svg width="39" height="35" viewBox="0 0 39 35" fill="none" xmlns="http://www.w3.org/2000/svg">
<path d="M32.5 13.8334C32.5 10.0621 32.5 8.17652 31.3284 7.00495C30.1569 5.83337 28.2712 5.83337 24.5 5.83337H14.5C10.7288 5.83337 8.84315 5.83337 7.67157 7.00495C6.5 8.17652 6.5 10.0621 6.5 13.8334V27.1667C6.5 28.1095 6.5 28.5809 6.79289 28.8738C7.08579 29.1667 7.55719 29.1667 8.5 29.1667H24.5C28.2712 29.1667 30.1569 29.1667 31.3284 27.9951C32.5 26.8236 32.5 24.9379 32.5 21.1667V13.8334Z" stroke="#222222"/>
<path d="M14.625 17.5L24.375 17.5" stroke="#222222" stroke-linecap="round" stroke-linejoin="round"/>
<path d="M19.5 13.125L19.5 21.875" stroke="#222222" stroke-linecap="round" stroke-linejoin="round"/>
</svg>
